<?xml version="1.0" encoding="UTF-8"?>
<svg id="Layer_1" data-name="Layer 1" xmlns="http://www.w3.org/2000/svg" viewBox="0 0 778.022 745.523">
  <defs>
    <style>
      .cls-1 {
        fill: #6fcfeb;
      }

      .cls-2 {
        fill: #003764;
      }

      .cls-3 {
        fill: #87e1d1;
      }
    </style>
  </defs>
  <polygon class="cls-2" points="24.386 57.523 .008 42.96 0 14.563 24.378 29.127 24.386 57.523"/>
  <polygon class="cls-1" points="24.386 57.523 48.764 42.96 48.772 14.563 24.394 29.127 24.386 57.523"/>
  <polygon class="cls-3" points="0 14.563 24.378 0 48.772 14.563 24.394 29.127 0 14.563"/>
  <polygon class="cls-2" points="82.719 57.523 58.342 42.96 58.333 14.563 82.711 29.127 82.719 57.523"/>
  <polygon class="cls-1" points="82.719 57.523 107.097 42.96 107.105 14.563 82.728 29.127 82.719 57.523"/>
  <polygon class="cls-3" points="58.333 14.563 82.711 0 107.105 14.563 82.728 29.127 58.333 14.563"/>
  <polygon class="cls-2" points="141.053 57.523 116.675 42.96 116.667 14.563 141.044 29.127 141.053 57.523"/>
  <polygon class="cls-1" points="141.053 57.523 165.43 42.96 165.439 14.563 141.061 29.127 141.053 57.523"/>
  <polygon class="cls-3" points="116.667 14.563 141.044 0 165.439 14.563 141.061 29.127 116.667 14.563"/>
  <polygon class="cls-2" points="199.386 57.523 175.008 42.96 175 14.563 199.378 29.127 199.386 57.523"/>
  <polygon class="cls-1" points="199.386 57.523 223.764 42.96 223.772 14.563 199.394 29.127 199.386 57.523"/>
  <polygon class="cls-3" points="175 14.563 199.378 0 223.772 14.563 199.394 29.127 175 14.563"/>
  <polygon class="cls-2" points="257.719 57.523 233.342 42.96 233.333 14.563 257.711 29.127 257.719 57.523"/>
  <polygon class="cls-1" points="257.719 57.523 282.097 42.96 282.105 14.563 257.728 29.127 257.719 57.523"/>
  <polygon class="cls-3" points="233.333 14.563 257.711 0 282.105 14.563 257.728 29.127 233.333 14.563"/>
  <polygon class="cls-2" points="316.053 57.523 291.675 42.96 291.667 14.563 316.044 29.127 316.053 57.523"/>
  <polygon class="cls-1" points="316.053 57.523 340.43 42.96 340.439 14.563 316.061 29.127 316.053 57.523"/>
  <polygon class="cls-3" points="291.667 14.563 316.044 0 340.439 14.563 316.061 29.127 291.667 14.563"/>
  <polygon class="cls-2" points="374.386 57.523 350.008 42.96 350 14.563 374.378 29.127 374.386 57.523"/>
  <polygon class="cls-1" points="374.386 57.523 398.764 42.96 398.772 14.563 374.394 29.127 374.386 57.523"/>
  <polygon class="cls-3" points="350 14.563 374.378 0 398.772 14.563 374.394 29.127 350 14.563"/>
  <polygon class="cls-2" points="432.719 57.523 408.342 42.96 408.333 14.563 432.711 29.127 432.719 57.523"/>
  <polygon class="cls-1" points="432.719 57.523 457.097 42.96 457.105 14.563 432.728 29.127 432.719 57.523"/>
  <polygon class="cls-3" points="408.333 14.563 432.711 0 457.105 14.563 432.728 29.127 408.333 14.563"/>
  <polygon class="cls-2" points="491.053 57.523 466.675 42.96 466.667 14.563 491.044 29.127 491.053 57.523"/>
  <polygon class="cls-1" points="491.053 57.523 515.43 42.96 515.439 14.563 491.061 29.127 491.053 57.523"/>
  <polygon class="cls-3" points="466.667 14.563 491.044 0 515.439 14.563 491.061 29.127 466.667 14.563"/>
  <polygon class="cls-2" points="549.386 57.523 525.008 42.96 525 14.563 549.378 29.127 549.386 57.523"/>
  <polygon class="cls-1" points="549.386 57.523 573.764 42.96 573.772 14.563 549.394 29.127 549.386 57.523"/>
  <polygon class="cls-3" points="525 14.563 549.378 0 573.772 14.563 549.394 29.127 525 14.563"/>
  <polygon class="cls-2" points="607.719 57.523 583.342 42.96 583.333 14.563 607.711 29.127 607.719 57.523"/>
  <polygon class="cls-1" points="607.719 57.523 632.097 42.96 632.105 14.563 607.728 29.127 607.719 57.523"/>
  <polygon class="cls-3" points="583.333 14.563 607.711 0 632.105 14.563 607.728 29.127 583.333 14.563"/>
  <polygon class="cls-2" points="666.053 57.523 641.675 42.96 641.667 14.563 666.044 29.127 666.053 57.523"/>
  <polygon class="cls-1" points="666.053 57.523 690.43 42.96 690.439 14.563 666.061 29.127 666.053 57.523"/>
  <polygon class="cls-3" points="641.667 14.563 666.044 0 690.439 14.563 666.061 29.127 641.667 14.563"/>
  <polygon class="cls-2" points="724.386 57.523 700.008 42.96 700 14.563 724.378 29.127 724.386 57.523"/>
  <polygon class="cls-1" points="724.386 57.523 748.764 42.96 748.772 14.563 724.394 29.127 724.386 57.523"/>
  <polygon class="cls-3" points="700 14.563 724.378 0 748.772 14.563 724.394 29.127 700 14.563"/>
  <polygon class="cls-2" points="53.636 109.523 29.258 94.96 29.25 66.563 53.628 81.127 53.636 109.523"/>
  <polygon class="cls-1" points="53.636 109.523 78.014 94.96 78.022 66.563 53.644 81.127 53.636 109.523"/>
  <polygon class="cls-3" points="29.25 66.563 53.628 52 78.022 66.563 53.644 81.127 29.25 66.563"/>
  <polygon class="cls-2" points="111.969 109.523 87.592 94.96 87.583 66.563 111.961 81.127 111.969 109.523"/>
  <polygon class="cls-1" points="111.969 109.523 136.347 94.96 136.355 66.563 111.978 81.127 111.969 109.523"/>
  <polygon class="cls-3" points="87.583 66.563 111.961 52 136.355 66.563 111.978 81.127 87.583 66.563"/>
  <polygon class="cls-2" points="170.303 109.523 145.925 94.96 145.917 66.563 170.294 81.127 170.303 109.523"/>
  <polygon class="cls-1" points="170.303 109.523 194.68 94.96 194.689 66.563 170.311 81.127 170.303 109.523"/>
  <polygon class="cls-3" points="145.917 66.563 170.294 52 194.689 66.563 170.311 81.127 145.917 66.563"/>
  <polygon class="cls-2" points="228.636 109.523 204.258 94.96 204.25 66.563 228.628 81.127 228.636 109.523"/>
  <polygon class="cls-1" points="228.636 109.523 253.014 94.96 253.022 66.563 228.644 81.127 228.636 109.523"/>
  <polygon class="cls-3" points="204.25 66.563 228.628 52 253.022 66.563 228.644 81.127 204.25 66.563"/>
  <polygon class="cls-2" points="286.969 109.523 262.592 94.96 262.583 66.563 286.961 81.127 286.969 109.523"/>
  <polygon class="cls-1" points="286.969 109.523 311.347 94.96 311.355 66.563 286.978 81.127 286.969 109.523"/>
  <polygon class="cls-3" points="262.583 66.563 286.961 52 311.355 66.563 286.978 81.127 262.583 66.563"/>
  <polygon class="cls-2" points="345.303 109.523 320.925 94.96 320.917 66.563 345.294 81.127 345.303 109.523"/>
  <polygon class="cls-1" points="345.303 109.523 369.68 94.96 369.689 66.563 345.311 81.127 345.303 109.523"/>
  <polygon class="cls-3" points="320.917 66.563 345.294 52 369.689 66.563 345.311 81.127 320.917 66.563"/>
  <polygon class="cls-2" points="403.636 109.523 379.258 94.96 379.25 66.563 403.628 81.127 403.636 109.523"/>
  <polygon class="cls-1" points="403.636 109.523 428.014 94.96 428.022 66.563 403.644 81.127 403.636 109.523"/>
  <polygon class="cls-3" points="379.25 66.563 403.628 52 428.022 66.563 403.644 81.127 379.25 66.563"/>
  <polygon class="cls-2" points="461.969 109.523 437.592 94.96 437.583 66.563 461.961 81.127 461.969 109.523"/>
  <polygon class="cls-1" points="461.969 109.523 486.347 94.96 486.355 66.563 461.978 81.127 461.969 109.523"/>
  <polygon class="cls-3" points="437.583 66.563 461.961 52 486.355 66.563 461.978 81.127 437.583 66.563"/>
  <polygon class="cls-2" points="520.303 109.523 495.925 94.96 495.917 66.563 520.294 81.127 520.303 109.523"/>
  <polygon class="cls-1" points="520.303 109.523 544.68 94.96 544.689 66.563 520.311 81.127 520.303 109.523"/>
  <polygon class="cls-3" points="495.917 66.563 520.294 52 544.689 66.563 520.311 81.127 495.917 66.563"/>
  <polygon class="cls-2" points="578.636 109.523 554.258 94.96 554.25 66.563 578.628 81.127 578.636 109.523"/>
  <polygon class="cls-1" points="578.636 109.523 603.014 94.96 603.022 66.563 578.644 81.127 578.636 109.523"/>
  <polygon class="cls-3" points="554.25 66.563 578.628 52 603.022 66.563 578.644 81.127 554.25 66.563"/>
  <polygon class="cls-2" points="636.969 109.523 612.592 94.96 612.583 66.563 636.961 81.127 636.969 109.523"/>
  <polygon class="cls-1" points="636.969 109.523 661.347 94.96 661.355 66.563 636.978 81.127 636.969 109.523"/>
  <polygon class="cls-3" points="612.583 66.563 636.961 52 661.355 66.563 636.978 81.127 612.583 66.563"/>
  <polygon class="cls-2" points="695.303 109.523 670.925 94.96 670.917 66.563 695.294 81.127 695.303 109.523"/>
  <polygon class="cls-1" points="695.303 109.523 719.68 94.96 719.689 66.563 695.311 81.127 695.303 109.523"/>
  <polygon class="cls-3" points="670.917 66.563 695.294 52 719.689 66.563 695.311 81.127 670.917 66.563"/>
  <polygon class="cls-2" points="753.636 109.523 729.258 94.96 729.25 66.563 753.628 81.127 753.636 109.523"/>
  <polygon class="cls-1" points="753.636 109.523 778.014 94.96 778.022 66.563 753.644 81.127 753.636 109.523"/>
  <polygon class="cls-3" points="729.25 66.563 753.628 52 778.022 66.563 753.644 81.127 729.25 66.563"/>
  <polygon class="cls-2" points="24.386 163.523 .008 148.96 0 120.563 24.378 135.127 24.386 163.523"/>
  <polygon class="cls-1" points="24.386 163.523 48.764 148.96 48.772 120.563 24.394 135.127 24.386 163.523"/>
  <polygon class="cls-3" points="0 120.563 24.378 106 48.772 120.563 24.394 135.127 0 120.563"/>
  <polygon class="cls-2" points="82.719 163.523 58.342 148.96 58.333 120.563 82.711 135.127 82.719 163.523"/>
  <polygon class="cls-1" points="82.719 163.523 107.097 148.96 107.105 120.563 82.728 135.127 82.719 163.523"/>
  <polygon class="cls-3" points="58.333 120.563 82.711 106 107.105 120.563 82.728 135.127 58.333 120.563"/>
  <polygon class="cls-2" points="141.053 163.523 116.675 148.96 116.667 120.563 141.044 135.127 141.053 163.523"/>
  <polygon class="cls-1" points="141.053 163.523 165.43 148.96 165.439 120.563 141.061 135.127 141.053 163.523"/>
  <polygon class="cls-3" points="116.667 120.563 141.044 106 165.439 120.563 141.061 135.127 116.667 120.563"/>
  <polygon class="cls-2" points="199.386 163.523 175.008 148.96 175 120.563 199.378 135.127 199.386 163.523"/>
  <polygon class="cls-1" points="199.386 163.523 223.764 148.96 223.772 120.563 199.394 135.127 199.386 163.523"/>
  <polygon class="cls-3" points="175 120.563 199.378 106 223.772 120.563 199.394 135.127 175 120.563"/>
  <polygon class="cls-2" points="257.719 163.523 233.342 148.96 233.333 120.563 257.711 135.127 257.719 163.523"/>
  <polygon class="cls-1" points="257.719 163.523 282.097 148.96 282.105 120.563 257.728 135.127 257.719 163.523"/>
  <polygon class="cls-3" points="233.333 120.563 257.711 106 282.105 120.563 257.728 135.127 233.333 120.563"/>
  <polygon class="cls-2" points="316.053 163.523 291.675 148.96 291.667 120.563 316.044 135.127 316.053 163.523"/>
  <polygon class="cls-1" points="316.053 163.523 340.43 148.96 340.439 120.563 316.061 135.127 316.053 163.523"/>
  <polygon class="cls-3" points="291.667 120.563 316.044 106 340.439 120.563 316.061 135.127 291.667 120.563"/>
  <polygon class="cls-2" points="374.386 163.523 350.008 148.96 350 120.563 374.378 135.127 374.386 163.523"/>
  <polygon class="cls-1" points="374.386 163.523 398.764 148.96 398.772 120.563 374.394 135.127 374.386 163.523"/>
  <polygon class="cls-3" points="350 120.563 374.378 106 398.772 120.563 374.394 135.127 350 120.563"/>
  <polygon class="cls-2" points="432.719 163.523 408.342 148.96 408.333 120.563 432.711 135.127 432.719 163.523"/>
  <polygon class="cls-1" points="432.719 163.523 457.097 148.96 457.105 120.563 432.728 135.127 432.719 163.523"/>
  <polygon class="cls-3" points="408.333 120.563 432.711 106 457.105 120.563 432.728 135.127 408.333 120.563"/>
  <polygon class="cls-2" points="491.053 163.523 466.675 148.96 466.667 120.563 491.044 135.127 491.053 163.523"/>
  <polygon class="cls-1" points="491.053 163.523 515.43 148.96 515.439 120.563 491.061 135.127 491.053 163.523"/>
  <polygon class="cls-3" points="466.667 120.563 491.044 106 515.439 120.563 491.061 135.127 466.667 120.563"/>
  <polygon class="cls-2" points="549.386 163.523 525.008 148.96 525 120.563 549.378 135.127 549.386 163.523"/>
  <polygon class="cls-1" points="549.386 163.523 573.764 148.96 573.772 120.563 549.394 135.127 549.386 163.523"/>
  <polygon class="cls-3" points="525 120.563 549.378 106 573.772 120.563 549.394 135.127 525 120.563"/>
  <polygon class="cls-2" points="607.719 163.523 583.342 148.96 583.333 120.563 607.711 135.127 607.719 163.523"/>
  <polygon class="cls-1" points="607.719 163.523 632.097 148.96 632.105 120.563 607.728 135.127 607.719 163.523"/>
  <polygon class="cls-3" points="583.333 120.563 607.711 106 632.105 120.563 607.728 135.127 583.333 120.563"/>
  <polygon class="cls-2" points="666.053 163.523 641.675 148.96 641.667 120.563 666.044 135.127 666.053 163.523"/>
  <polygon class="cls-1" points="666.053 163.523 690.43 148.96 690.439 120.563 666.061 135.127 666.053 163.523"/>
  <polygon class="cls-3" points="641.667 120.563 666.044 106 690.439 120.563 666.061 135.127 641.667 120.563"/>
  <polygon class="cls-2" points="724.386 163.523 700.008 148.96 700 120.563 724.378 135.127 724.386 163.523"/>
  <polygon class="cls-1" points="724.386 163.523 748.764 148.96 748.772 120.563 724.394 135.127 724.386 163.523"/>
  <polygon class="cls-3" points="700 120.563 724.378 106 748.772 120.563 724.394 135.127 700 120.563"/>
  <polygon class="cls-2" points="53.636 215.523 29.258 200.96 29.25 172.563 53.628 187.127 53.636 215.523"/>
  <polygon class="cls-1" points="53.636 215.523 78.014 200.96 78.022 172.563 53.644 187.127 53.636 215.523"/>
  <polygon class="cls-3" points="29.25 172.563 53.628 158 78.022 172.563 53.644 187.127 29.25 172.563"/>
  <polygon class="cls-2" points="111.969 215.523 87.592 200.96 87.583 172.563 111.961 187.127 111.969 215.523"/>
  <polygon class="cls-1" points="111.969 215.523 136.347 200.96 136.355 172.563 111.978 187.127 111.969 215.523"/>
  <polygon class="cls-3" points="87.583 172.563 111.961 158 136.355 172.563 111.978 187.127 87.583 172.563"/>
  <polygon class="cls-2" points="170.303 215.523 145.925 200.96 145.917 172.563 170.294 187.127 170.303 215.523"/>
  <polygon class="cls-1" points="170.303 215.523 194.68 200.96 194.689 172.563 170.311 187.127 170.303 215.523"/>
  <polygon class="cls-3" points="145.917 172.563 170.294 158 194.689 172.563 170.311 187.127 145.917 172.563"/>
  <polygon class="cls-2" points="228.636 215.523 204.258 200.96 204.25 172.563 228.628 187.127 228.636 215.523"/>
  <polygon class="cls-1" points="228.636 215.523 253.014 200.96 253.022 172.563 228.644 187.127 228.636 215.523"/>
  <polygon class="cls-3" points="204.25 172.563 228.628 158 253.022 172.563 228.644 187.127 204.25 172.563"/>
  <polygon class="cls-2" points="286.969 215.523 262.592 200.96 262.583 172.563 286.961 187.127 286.969 215.523"/>
  <polygon class="cls-1" points="286.969 215.523 311.347 200.96 311.355 172.563 286.978 187.127 286.969 215.523"/>
  <polygon class="cls-3" points="262.583 172.563 286.961 158 311.355 172.563 286.978 187.127 262.583 172.563"/>
  <polygon class="cls-2" points="345.303 215.523 320.925 200.96 320.917 172.563 345.294 187.127 345.303 215.523"/>
  <polygon class="cls-1" points="345.303 215.523 369.68 200.96 369.689 172.563 345.311 187.127 345.303 215.523"/>
  <polygon class="cls-3" points="320.917 172.563 345.294 158 369.689 172.563 345.311 187.127 320.917 172.563"/>
  <polygon class="cls-2" points="403.636 215.523 379.258 200.96 379.25 172.563 403.628 187.127 403.636 215.523"/>
  <polygon class="cls-1" points="403.636 215.523 428.014 200.96 428.022 172.563 403.644 187.127 403.636 215.523"/>
  <polygon class="cls-3" points="379.25 172.563 403.628 158 428.022 172.563 403.644 187.127 379.25 172.563"/>
  <polygon class="cls-2" points="461.969 215.523 437.592 200.96 437.583 172.563 461.961 187.127 461.969 215.523"/>
  <polygon class="cls-1" points="461.969 215.523 486.347 200.96 486.355 172.563 461.978 187.127 461.969 215.523"/>
  <polygon class="cls-3" points="437.583 172.563 461.961 158 486.355 172.563 461.978 187.127 437.583 172.563"/>
  <polygon class="cls-2" points="520.303 215.523 495.925 200.96 495.917 172.563 520.294 187.127 520.303 215.523"/>
  <polygon class="cls-1" points="520.303 215.523 544.68 200.96 544.689 172.563 520.311 187.127 520.303 215.523"/>
  <polygon class="cls-3" points="495.917 172.563 520.294 158 544.689 172.563 520.311 187.127 495.917 172.563"/>
  <polygon class="cls-2" points="578.636 215.523 554.258 200.96 554.25 172.563 578.628 187.127 578.636 215.523"/>
  <polygon class="cls-1" points="578.636 215.523 603.014 200.96 603.022 172.563 578.644 187.127 578.636 215.523"/>
  <polygon class="cls-3" points="554.25 172.563 578.628 158 603.022 172.563 578.644 187.127 554.25 172.563"/>
  <polygon class="cls-2" points="636.969 215.523 612.592 200.96 612.583 172.563 636.961 187.127 636.969 215.523"/>
  <polygon class="cls-1" points="636.969 215.523 661.347 200.96 661.355 172.563 636.978 187.127 636.969 215.523"/>
  <polygon class="cls-3" points="612.583 172.563 636.961 158 661.355 172.563 636.978 187.127 612.583 172.563"/>
  <polygon class="cls-2" points="695.303 215.523 670.925 200.96 670.917 172.563 695.294 187.127 695.303 215.523"/>
  <polygon class="cls-1" points="695.303 215.523 719.68 200.96 719.689 172.563 695.311 187.127 695.303 215.523"/>
  <polygon class="cls-3" points="670.917 172.563 695.294 158 719.689 172.563 695.311 187.127 670.917 172.563"/>
  <polygon class="cls-2" points="753.636 215.523 729.258 200.96 729.25 172.563 753.628 187.127 753.636 215.523"/>
  <polygon class="cls-1" points="753.636 215.523 778.014 200.96 778.022 172.563 753.644 187.127 753.636 215.523"/>
  <polygon class="cls-3" points="729.25 172.563 753.628 158 778.022 172.563 753.644 187.127 729.25 172.563"/>
  <polygon class="cls-2" points="24.386 269.523 .008 254.96 0 226.563 24.378 241.127 24.386 269.523"/>
  <polygon class="cls-1" points="24.386 269.523 48.764 254.96 48.772 226.563 24.394 241.127 24.386 269.523"/>
  <polygon class="cls-3" points="0 226.563 24.378 212 48.772 226.563 24.394 241.127 0 226.563"/>
  <polygon class="cls-2" points="82.719 269.523 58.342 254.96 58.333 226.563 82.711 241.127 82.719 269.523"/>
  <polygon class="cls-1" points="82.719 269.523 107.097 254.96 107.105 226.563 82.728 241.127 82.719 269.523"/>
  <polygon class="cls-3" points="58.333 226.563 82.711 212 107.105 226.563 82.728 241.127 58.333 226.563"/>
  <polygon class="cls-2" points="141.053 269.523 116.675 254.96 116.667 226.563 141.044 241.127 141.053 269.523"/>
  <polygon class="cls-1" points="141.053 269.523 165.43 254.96 165.439 226.563 141.061 241.127 141.053 269.523"/>
  <polygon class="cls-3" points="116.667 226.563 141.044 212 165.439 226.563 141.061 241.127 116.667 226.563"/>
  <polygon class="cls-2" points="199.386 269.523 175.008 254.96 175 226.563 199.378 241.127 199.386 269.523"/>
  <polygon class="cls-1" points="199.386 269.523 223.764 254.96 223.772 226.563 199.394 241.127 199.386 269.523"/>
  <polygon class="cls-3" points="175 226.563 199.378 212 223.772 226.563 199.394 241.127 175 226.563"/>
  <polygon class="cls-2" points="257.719 269.523 233.342 254.96 233.333 226.563 257.711 241.127 257.719 269.523"/>
  <polygon class="cls-1" points="257.719 269.523 282.097 254.96 282.105 226.563 257.728 241.127 257.719 269.523"/>
  <polygon class="cls-3" points="233.333 226.563 257.711 212 282.105 226.563 257.728 241.127 233.333 226.563"/>
  <polygon class="cls-2" points="316.053 269.523 291.675 254.96 291.667 226.563 316.044 241.127 316.053 269.523"/>
  <polygon class="cls-1" points="316.053 269.523 340.43 254.96 340.439 226.563 316.061 241.127 316.053 269.523"/>
  <polygon class="cls-3" points="291.667 226.563 316.044 212 340.439 226.563 316.061 241.127 291.667 226.563"/>
  <polygon class="cls-2" points="374.386 269.523 350.008 254.96 350 226.563 374.378 241.127 374.386 269.523"/>
  <polygon class="cls-1" points="374.386 269.523 398.764 254.96 398.772 226.563 374.394 241.127 374.386 269.523"/>
  <polygon class="cls-3" points="350 226.563 374.378 212 398.772 226.563 374.394 241.127 350 226.563"/>
  <polygon class="cls-2" points="432.719 269.523 408.342 254.96 408.333 226.563 432.711 241.127 432.719 269.523"/>
  <polygon class="cls-1" points="432.719 269.523 457.097 254.96 457.105 226.563 432.728 241.127 432.719 269.523"/>
  <polygon class="cls-3" points="408.333 226.563 432.711 212 457.105 226.563 432.728 241.127 408.333 226.563"/>
  <polygon class="cls-2" points="491.053 269.523 466.675 254.96 466.667 226.563 491.044 241.127 491.053 269.523"/>
  <polygon class="cls-1" points="491.053 269.523 515.43 254.96 515.439 226.563 491.061 241.127 491.053 269.523"/>
  <polygon class="cls-3" points="466.667 226.563 491.044 212 515.439 226.563 491.061 241.127 466.667 226.563"/>
  <polygon class="cls-2" points="549.386 269.523 525.008 254.96 525 226.563 549.378 241.127 549.386 269.523"/>
  <polygon class="cls-1" points="549.386 269.523 573.764 254.96 573.772 226.563 549.394 241.127 549.386 269.523"/>
  <polygon class="cls-3" points="525 226.563 549.378 212 573.772 226.563 549.394 241.127 525 226.563"/>
  <polygon class="cls-2" points="607.719 269.523 583.342 254.96 583.333 226.563 607.711 241.127 607.719 269.523"/>
  <polygon class="cls-1" points="607.719 269.523 632.097 254.96 632.105 226.563 607.728 241.127 607.719 269.523"/>
  <polygon class="cls-3" points="583.333 226.563 607.711 212 632.105 226.563 607.728 241.127 583.333 226.563"/>
  <polygon class="cls-2" points="666.053 269.523 641.675 254.96 641.667 226.563 666.044 241.127 666.053 269.523"/>
  <polygon class="cls-1" points="666.053 269.523 690.43 254.96 690.439 226.563 666.061 241.127 666.053 269.523"/>
  <polygon class="cls-3" points="641.667 226.563 666.044 212 690.439 226.563 666.061 241.127 641.667 226.563"/>
  <polygon class="cls-2" points="724.386 269.523 700.008 254.96 700 226.563 724.378 241.127 724.386 269.523"/>
  <polygon class="cls-1" points="724.386 269.523 748.764 254.96 748.772 226.563 724.394 241.127 724.386 269.523"/>
  <polygon class="cls-3" points="700 226.563 724.378 212 748.772 226.563 724.394 241.127 700 226.563"/>
  <polygon class="cls-2" points="53.636 321.523 29.258 306.96 29.25 278.563 53.628 293.127 53.636 321.523"/>
  <polygon class="cls-1" points="53.636 321.523 78.014 306.96 78.022 278.563 53.644 293.127 53.636 321.523"/>
  <polygon class="cls-3" points="29.25 278.563 53.628 264 78.022 278.563 53.644 293.127 29.25 278.563"/>
  <polygon class="cls-2" points="111.969 321.523 87.592 306.96 87.583 278.563 111.961 293.127 111.969 321.523"/>
  <polygon class="cls-1" points="111.969 321.523 136.347 306.96 136.355 278.563 111.978 293.127 111.969 321.523"/>
  <polygon class="cls-3" points="87.583 278.563 111.961 264 136.355 278.563 111.978 293.127 87.583 278.563"/>
  <polygon class="cls-2" points="170.303 321.523 145.925 306.96 145.917 278.563 170.294 293.127 170.303 321.523"/>
  <polygon class="cls-1" points="170.303 321.523 194.68 306.96 194.689 278.563 170.311 293.127 170.303 321.523"/>
  <polygon class="cls-3" points="145.917 278.563 170.294 264 194.689 278.563 170.311 293.127 145.917 278.563"/>
  <polygon class="cls-2" points="228.636 321.523 204.258 306.96 204.25 278.563 228.628 293.127 228.636 321.523"/>
  <polygon class="cls-1" points="228.636 321.523 253.014 306.96 253.022 278.563 228.644 293.127 228.636 321.523"/>
  <polygon class="cls-3" points="204.25 278.563 228.628 264 253.022 278.563 228.644 293.127 204.25 278.563"/>
  <polygon class="cls-2" points="286.969 321.523 262.592 306.96 262.583 278.563 286.961 293.127 286.969 321.523"/>
  <polygon class="cls-1" points="286.969 321.523 311.347 306.96 311.355 278.563 286.978 293.127 286.969 321.523"/>
  <polygon class="cls-3" points="262.583 278.563 286.961 264 311.355 278.563 286.978 293.127 262.583 278.563"/>
  <polygon class="cls-2" points="345.303 321.523 320.925 306.96 320.917 278.563 345.294 293.127 345.303 321.523"/>
  <polygon class="cls-1" points="345.303 321.523 369.68 306.96 369.689 278.563 345.311 293.127 345.303 321.523"/>
  <polygon class="cls-3" points="320.917 278.563 345.294 264 369.689 278.563 345.311 293.127 320.917 278.563"/>
  <polygon class="cls-2" points="403.636 321.523 379.258 306.96 379.25 278.563 403.628 293.127 403.636 321.523"/>
  <polygon class="cls-1" points="403.636 321.523 428.014 306.96 428.022 278.563 403.644 293.127 403.636 321.523"/>
  <polygon class="cls-3" points="379.25 278.563 403.628 264 428.022 278.563 403.644 293.127 379.25 278.563"/>
  <polygon class="cls-2" points="461.969 321.523 437.592 306.96 437.583 278.563 461.961 293.127 461.969 321.523"/>
  <polygon class="cls-1" points="461.969 321.523 486.347 306.96 486.355 278.563 461.978 293.127 461.969 321.523"/>
  <polygon class="cls-3" points="437.583 278.563 461.961 264 486.355 278.563 461.978 293.127 437.583 278.563"/>
  <polygon class="cls-2" points="520.303 321.523 495.925 306.96 495.917 278.563 520.294 293.127 520.303 321.523"/>
  <polygon class="cls-1" points="520.303 321.523 544.68 306.96 544.689 278.563 520.311 293.127 520.303 321.523"/>
  <polygon class="cls-3" points="495.917 278.563 520.294 264 544.689 278.563 520.311 293.127 495.917 278.563"/>
  <polygon class="cls-2" points="578.636 321.523 554.258 306.96 554.25 278.563 578.628 293.127 578.636 321.523"/>
  <polygon class="cls-1" points="578.636 321.523 603.014 306.96 603.022 278.563 578.644 293.127 578.636 321.523"/>
  <polygon class="cls-3" points="554.25 278.563 578.628 264 603.022 278.563 578.644 293.127 554.25 278.563"/>
  <polygon class="cls-2" points="636.969 321.523 612.592 306.96 612.583 278.563 636.961 293.127 636.969 321.523"/>
  <polygon class="cls-1" points="636.969 321.523 661.347 306.96 661.355 278.563 636.978 293.127 636.969 321.523"/>
  <polygon class="cls-3" points="612.583 278.563 636.961 264 661.355 278.563 636.978 293.127 612.583 278.563"/>
  <polygon class="cls-2" points="695.303 321.523 670.925 306.96 670.917 278.563 695.294 293.127 695.303 321.523"/>
  <polygon class="cls-1" points="695.303 321.523 719.68 306.96 719.689 278.563 695.311 293.127 695.303 321.523"/>
  <polygon class="cls-3" points="670.917 278.563 695.294 264 719.689 278.563 695.311 293.127 670.917 278.563"/>
  <polygon class="cls-2" points="753.636 321.523 729.258 306.96 729.25 278.563 753.628 293.127 753.636 321.523"/>
  <polygon class="cls-1" points="753.636 321.523 778.014 306.96 778.022 278.563 753.644 293.127 753.636 321.523"/>
  <polygon class="cls-3" points="729.25 278.563 753.628 264 778.022 278.563 753.644 293.127 729.25 278.563"/>
  <polygon class="cls-2" points="24.386 375.523 .008 360.96 0 332.563 24.378 347.127 24.386 375.523"/>
  <polygon class="cls-1" points="24.386 375.523 48.764 360.96 48.772 332.563 24.394 347.127 24.386 375.523"/>
  <polygon class="cls-3" points="0 332.563 24.378 318 48.772 332.563 24.394 347.127 0 332.563"/>
  <polygon class="cls-2" points="82.719 375.523 58.342 360.96 58.333 332.563 82.711 347.127 82.719 375.523"/>
  <polygon class="cls-1" points="82.719 375.523 107.097 360.96 107.105 332.563 82.728 347.127 82.719 375.523"/>
  <polygon class="cls-3" points="58.333 332.563 82.711 318 107.105 332.563 82.728 347.127 58.333 332.563"/>
  <polygon class="cls-2" points="141.053 375.523 116.675 360.96 116.667 332.563 141.044 347.127 141.053 375.523"/>
  <polygon class="cls-1" points="141.053 375.523 165.43 360.96 165.439 332.563 141.061 347.127 141.053 375.523"/>
  <polygon class="cls-3" points="116.667 332.563 141.044 318 165.439 332.563 141.061 347.127 116.667 332.563"/>
  <polygon class="cls-2" points="199.386 375.523 175.008 360.96 175 332.563 199.378 347.127 199.386 375.523"/>
  <polygon class="cls-1" points="199.386 375.523 223.764 360.96 223.772 332.563 199.394 347.127 199.386 375.523"/>
  <polygon class="cls-3" points="175 332.563 199.378 318 223.772 332.563 199.394 347.127 175 332.563"/>
  <polygon class="cls-2" points="257.719 375.523 233.342 360.96 233.333 332.563 257.711 347.127 257.719 375.523"/>
  <polygon class="cls-1" points="257.719 375.523 282.097 360.96 282.105 332.563 257.728 347.127 257.719 375.523"/>
  <polygon class="cls-3" points="233.333 332.563 257.711 318 282.105 332.563 257.728 347.127 233.333 332.563"/>
  <polygon class="cls-2" points="316.053 375.523 291.675 360.96 291.667 332.563 316.044 347.127 316.053 375.523"/>
  <polygon class="cls-1" points="316.053 375.523 340.43 360.96 340.439 332.563 316.061 347.127 316.053 375.523"/>
  <polygon class="cls-3" points="291.667 332.563 316.044 318 340.439 332.563 316.061 347.127 291.667 332.563"/>
  <polygon class="cls-2" points="374.386 375.523 350.008 360.96 350 332.563 374.378 347.127 374.386 375.523"/>
  <polygon class="cls-1" points="374.386 375.523 398.764 360.96 398.772 332.563 374.394 347.127 374.386 375.523"/>
  <polygon class="cls-3" points="350 332.563 374.378 318 398.772 332.563 374.394 347.127 350 332.563"/>
  <polygon class="cls-2" points="432.719 375.523 408.342 360.96 408.333 332.563 432.711 347.127 432.719 375.523"/>
  <polygon class="cls-1" points="432.719 375.523 457.097 360.96 457.105 332.563 432.728 347.127 432.719 375.523"/>
  <polygon class="cls-3" points="408.333 332.563 432.711 318 457.105 332.563 432.728 347.127 408.333 332.563"/>
  <polygon class="cls-2" points="491.053 375.523 466.675 360.96 466.667 332.563 491.044 347.127 491.053 375.523"/>
  <polygon class="cls-1" points="491.053 375.523 515.43 360.96 515.439 332.563 491.061 347.127 491.053 375.523"/>
  <polygon class="cls-3" points="466.667 332.563 491.044 318 515.439 332.563 491.061 347.127 466.667 332.563"/>
  <polygon class="cls-2" points="549.386 375.523 525.008 360.96 525 332.563 549.378 347.127 549.386 375.523"/>
  <polygon class="cls-1" points="549.386 375.523 573.764 360.96 573.772 332.563 549.394 347.127 549.386 375.523"/>
  <polygon class="cls-3" points="525 332.563 549.378 318 573.772 332.563 549.394 347.127 525 332.563"/>
  <polygon class="cls-2" points="607.719 375.523 583.342 360.96 583.333 332.563 607.711 347.127 607.719 375.523"/>
  <polygon class="cls-1" points="607.719 375.523 632.097 360.96 632.105 332.563 607.728 347.127 607.719 375.523"/>
  <polygon class="cls-3" points="583.333 332.563 607.711 318 632.105 332.563 607.728 347.127 583.333 332.563"/>
  <polygon class="cls-2" points="666.053 375.523 641.675 360.96 641.667 332.563 666.044 347.127 666.053 375.523"/>
  <polygon class="cls-1" points="666.053 375.523 690.43 360.96 690.439 332.563 666.061 347.127 666.053 375.523"/>
  <polygon class="cls-3" points="641.667 332.563 666.044 318 690.439 332.563 666.061 347.127 641.667 332.563"/>
  <polygon class="cls-2" points="724.386 375.523 700.008 360.96 700 332.563 724.378 347.127 724.386 375.523"/>
  <polygon class="cls-1" points="724.386 375.523 748.764 360.96 748.772 332.563 724.394 347.127 724.386 375.523"/>
  <polygon class="cls-3" points="700 332.563 724.378 318 748.772 332.563 724.394 347.127 700 332.563"/>
  <polygon class="cls-2" points="53.636 427.523 29.258 412.96 29.25 384.563 53.628 399.127 53.636 427.523"/>
  <polygon class="cls-1" points="53.636 427.523 78.014 412.96 78.022 384.563 53.644 399.127 53.636 427.523"/>
  <polygon class="cls-3" points="29.25 384.563 53.628 370 78.022 384.563 53.644 399.127 29.25 384.563"/>
  <polygon class="cls-2" points="111.969 427.523 87.592 412.96 87.583 384.563 111.961 399.127 111.969 427.523"/>
  <polygon class="cls-1" points="111.969 427.523 136.347 412.96 136.355 384.563 111.978 399.127 111.969 427.523"/>
  <polygon class="cls-3" points="87.583 384.563 111.961 370 136.355 384.563 111.978 399.127 87.583 384.563"/>
  <polygon class="cls-2" points="170.303 427.523 145.925 412.96 145.917 384.563 170.294 399.127 170.303 427.523"/>
  <polygon class="cls-1" points="170.303 427.523 194.68 412.96 194.689 384.563 170.311 399.127 170.303 427.523"/>
  <polygon class="cls-3" points="145.917 384.563 170.294 370 194.689 384.563 170.311 399.127 145.917 384.563"/>
  <polygon class="cls-2" points="228.636 427.523 204.258 412.96 204.25 384.563 228.628 399.127 228.636 427.523"/>
  <polygon class="cls-1" points="228.636 427.523 253.014 412.96 253.022 384.563 228.644 399.127 228.636 427.523"/>
  <polygon class="cls-3" points="204.25 384.563 228.628 370 253.022 384.563 228.644 399.127 204.25 384.563"/>
  <polygon class="cls-2" points="286.969 427.523 262.592 412.96 262.583 384.563 286.961 399.127 286.969 427.523"/>
  <polygon class="cls-1" points="286.969 427.523 311.347 412.96 311.355 384.563 286.978 399.127 286.969 427.523"/>
  <polygon class="cls-3" points="262.583 384.563 286.961 370 311.355 384.563 286.978 399.127 262.583 384.563"/>
  <polygon class="cls-2" points="345.303 427.523 320.925 412.96 320.917 384.563 345.294 399.127 345.303 427.523"/>
  <polygon class="cls-1" points="345.303 427.523 369.68 412.96 369.689 384.563 345.311 399.127 345.303 427.523"/>
  <polygon class="cls-3" points="320.917 384.563 345.294 370 369.689 384.563 345.311 399.127 320.917 384.563"/>
  <polygon class="cls-2" points="403.636 427.523 379.258 412.96 379.25 384.563 403.628 399.127 403.636 427.523"/>
  <polygon class="cls-1" points="403.636 427.523 428.014 412.96 428.022 384.563 403.644 399.127 403.636 427.523"/>
  <polygon class="cls-3" points="379.25 384.563 403.628 370 428.022 384.563 403.644 399.127 379.25 384.563"/>
  <polygon class="cls-2" points="461.969 427.523 437.592 412.96 437.583 384.563 461.961 399.127 461.969 427.523"/>
  <polygon class="cls-1" points="461.969 427.523 486.347 412.96 486.355 384.563 461.978 399.127 461.969 427.523"/>
  <polygon class="cls-3" points="437.583 384.563 461.961 370 486.355 384.563 461.978 399.127 437.583 384.563"/>
  <polygon class="cls-2" points="520.303 427.523 495.925 412.96 495.917 384.563 520.294 399.127 520.303 427.523"/>
  <polygon class="cls-1" points="520.303 427.523 544.68 412.96 544.689 384.563 520.311 399.127 520.303 427.523"/>
  <polygon class="cls-3" points="495.917 384.563 520.294 370 544.689 384.563 520.311 399.127 495.917 384.563"/>
  <polygon class="cls-2" points="578.636 427.523 554.258 412.96 554.25 384.563 578.628 399.127 578.636 427.523"/>
  <polygon class="cls-1" points="578.636 427.523 603.014 412.96 603.022 384.563 578.644 399.127 578.636 427.523"/>
  <polygon class="cls-3" points="554.25 384.563 578.628 370 603.022 384.563 578.644 399.127 554.25 384.563"/>
  <polygon class="cls-2" points="636.969 427.523 612.592 412.96 612.583 384.563 636.961 399.127 636.969 427.523"/>
  <polygon class="cls-1" points="636.969 427.523 661.347 412.96 661.355 384.563 636.978 399.127 636.969 427.523"/>
  <polygon class="cls-3" points="612.583 384.563 636.961 370 661.355 384.563 636.978 399.127 612.583 384.563"/>
  <polygon class="cls-2" points="695.303 427.523 670.925 412.96 670.917 384.563 695.294 399.127 695.303 427.523"/>
  <polygon class="cls-1" points="695.303 427.523 719.68 412.96 719.689 384.563 695.311 399.127 695.303 427.523"/>
  <polygon class="cls-3" points="670.917 384.563 695.294 370 719.689 384.563 695.311 399.127 670.917 384.563"/>
  <polygon class="cls-2" points="753.636 427.523 729.258 412.96 729.25 384.563 753.628 399.127 753.636 427.523"/>
  <polygon class="cls-1" points="753.636 427.523 778.014 412.96 778.022 384.563 753.644 399.127 753.636 427.523"/>
  <polygon class="cls-3" points="729.25 384.563 753.628 370 778.022 384.563 753.644 399.127 729.25 384.563"/>
  <polygon class="cls-2" points="24.386 481.523 .008 466.96 0 438.563 24.378 453.127 24.386 481.523"/>
  <polygon class="cls-1" points="24.386 481.523 48.764 466.96 48.772 438.563 24.394 453.127 24.386 481.523"/>
  <polygon class="cls-3" points="0 438.563 24.378 424 48.772 438.563 24.394 453.127 0 438.563"/>
  <polygon class="cls-2" points="82.719 481.523 58.342 466.96 58.333 438.563 82.711 453.127 82.719 481.523"/>
  <polygon class="cls-1" points="82.719 481.523 107.097 466.96 107.105 438.563 82.728 453.127 82.719 481.523"/>
  <polygon class="cls-3" points="58.333 438.563 82.711 424 107.105 438.563 82.728 453.127 58.333 438.563"/>
  <polygon class="cls-2" points="141.053 481.523 116.675 466.96 116.667 438.563 141.044 453.127 141.053 481.523"/>
  <polygon class="cls-1" points="141.053 481.523 165.43 466.96 165.439 438.563 141.061 453.127 141.053 481.523"/>
  <polygon class="cls-3" points="116.667 438.563 141.044 424 165.439 438.563 141.061 453.127 116.667 438.563"/>
  <polygon class="cls-2" points="199.386 481.523 175.008 466.96 175 438.563 199.378 453.127 199.386 481.523"/>
  <polygon class="cls-1" points="199.386 481.523 223.764 466.96 223.772 438.563 199.394 453.127 199.386 481.523"/>
  <polygon class="cls-3" points="175 438.563 199.378 424 223.772 438.563 199.394 453.127 175 438.563"/>
  <polygon class="cls-2" points="257.719 481.523 233.342 466.96 233.333 438.563 257.711 453.127 257.719 481.523"/>
  <polygon class="cls-1" points="257.719 481.523 282.097 466.96 282.105 438.563 257.728 453.127 257.719 481.523"/>
  <polygon class="cls-3" points="233.333 438.563 257.711 424 282.105 438.563 257.728 453.127 233.333 438.563"/>
  <polygon class="cls-2" points="316.053 481.523 291.675 466.96 291.667 438.563 316.044 453.127 316.053 481.523"/>
  <polygon class="cls-1" points="316.053 481.523 340.43 466.96 340.439 438.563 316.061 453.127 316.053 481.523"/>
  <polygon class="cls-3" points="291.667 438.563 316.044 424 340.439 438.563 316.061 453.127 291.667 438.563"/>
  <polygon class="cls-2" points="374.386 481.523 350.008 466.96 350 438.563 374.378 453.127 374.386 481.523"/>
  <polygon class="cls-1" points="374.386 481.523 398.764 466.96 398.772 438.563 374.394 453.127 374.386 481.523"/>
  <polygon class="cls-3" points="350 438.563 374.378 424 398.772 438.563 374.394 453.127 350 438.563"/>
  <polygon class="cls-2" points="432.719 481.523 408.342 466.96 408.333 438.563 432.711 453.127 432.719 481.523"/>
  <polygon class="cls-1" points="432.719 481.523 457.097 466.96 457.105 438.563 432.728 453.127 432.719 481.523"/>
  <polygon class="cls-3" points="408.333 438.563 432.711 424 457.105 438.563 432.728 453.127 408.333 438.563"/>
  <polygon class="cls-2" points="491.053 481.523 466.675 466.96 466.667 438.563 491.044 453.127 491.053 481.523"/>
  <polygon class="cls-1" points="491.053 481.523 515.43 466.96 515.439 438.563 491.061 453.127 491.053 481.523"/>
  <polygon class="cls-3" points="466.667 438.563 491.044 424 515.439 438.563 491.061 453.127 466.667 438.563"/>
  <polygon class="cls-2" points="549.386 481.523 525.008 466.96 525 438.563 549.378 453.127 549.386 481.523"/>
  <polygon class="cls-1" points="549.386 481.523 573.764 466.96 573.772 438.563 549.394 453.127 549.386 481.523"/>
  <polygon class="cls-3" points="525 438.563 549.378 424 573.772 438.563 549.394 453.127 525 438.563"/>
  <polygon class="cls-2" points="607.719 481.523 583.342 466.96 583.333 438.563 607.711 453.127 607.719 481.523"/>
  <polygon class="cls-1" points="607.719 481.523 632.097 466.96 632.105 438.563 607.728 453.127 607.719 481.523"/>
  <polygon class="cls-3" points="583.333 438.563 607.711 424 632.105 438.563 607.728 453.127 583.333 438.563"/>
  <polygon class="cls-2" points="666.053 481.523 641.675 466.96 641.667 438.563 666.044 453.127 666.053 481.523"/>
  <polygon class="cls-1" points="666.053 481.523 690.43 466.96 690.439 438.563 666.061 453.127 666.053 481.523"/>
  <polygon class="cls-3" points="641.667 438.563 666.044 424 690.439 438.563 666.061 453.127 641.667 438.563"/>
  <polygon class="cls-2" points="724.386 481.523 700.008 466.96 700 438.563 724.378 453.127 724.386 481.523"/>
  <polygon class="cls-1" points="724.386 481.523 748.764 466.96 748.772 438.563 724.394 453.127 724.386 481.523"/>
  <polygon class="cls-3" points="700 438.563 724.378 424 748.772 438.563 724.394 453.127 700 438.563"/>
  <polygon class="cls-2" points="53.636 533.523 29.258 518.96 29.25 490.563 53.628 505.127 53.636 533.523"/>
  <polygon class="cls-1" points="53.636 533.523 78.014 518.96 78.022 490.563 53.644 505.127 53.636 533.523"/>
  <polygon class="cls-3" points="29.25 490.563 53.628 476 78.022 490.563 53.644 505.127 29.25 490.563"/>
  <polygon class="cls-2" points="111.969 533.523 87.592 518.96 87.583 490.563 111.961 505.127 111.969 533.523"/>
  <polygon class="cls-1" points="111.969 533.523 136.347 518.96 136.355 490.563 111.978 505.127 111.969 533.523"/>
  <polygon class="cls-3" points="87.583 490.563 111.961 476 136.355 490.563 111.978 505.127 87.583 490.563"/>
  <polygon class="cls-2" points="170.303 533.523 145.925 518.96 145.917 490.563 170.294 505.127 170.303 533.523"/>
  <polygon class="cls-1" points="170.303 533.523 194.68 518.96 194.689 490.563 170.311 505.127 170.303 533.523"/>
  <polygon class="cls-3" points="145.917 490.563 170.294 476 194.689 490.563 170.311 505.127 145.917 490.563"/>
  <polygon class="cls-2" points="228.636 533.523 204.258 518.96 204.25 490.563 228.628 505.127 228.636 533.523"/>
  <polygon class="cls-1" points="228.636 533.523 253.014 518.96 253.022 490.563 228.644 505.127 228.636 533.523"/>
  <polygon class="cls-3" points="204.25 490.563 228.628 476 253.022 490.563 228.644 505.127 204.25 490.563"/>
  <polygon class="cls-2" points="286.969 533.523 262.592 518.96 262.583 490.563 286.961 505.127 286.969 533.523"/>
  <polygon class="cls-1" points="286.969 533.523 311.347 518.96 311.355 490.563 286.978 505.127 286.969 533.523"/>
  <polygon class="cls-3" points="262.583 490.563 286.961 476 311.355 490.563 286.978 505.127 262.583 490.563"/>
  <polygon class="cls-2" points="345.303 533.523 320.925 518.96 320.917 490.563 345.294 505.127 345.303 533.523"/>
  <polygon class="cls-1" points="345.303 533.523 369.68 518.96 369.689 490.563 345.311 505.127 345.303 533.523"/>
  <polygon class="cls-3" points="320.917 490.563 345.294 476 369.689 490.563 345.311 505.127 320.917 490.563"/>
  <polygon class="cls-2" points="403.636 533.523 379.258 518.96 379.25 490.563 403.628 505.127 403.636 533.523"/>
  <polygon class="cls-1" points="403.636 533.523 428.014 518.96 428.022 490.563 403.644 505.127 403.636 533.523"/>
  <polygon class="cls-3" points="379.25 490.563 403.628 476 428.022 490.563 403.644 505.127 379.25 490.563"/>
  <polygon class="cls-2" points="461.969 533.523 437.592 518.96 437.583 490.563 461.961 505.127 461.969 533.523"/>
  <polygon class="cls-1" points="461.969 533.523 486.347 518.96 486.355 490.563 461.978 505.127 461.969 533.523"/>
  <polygon class="cls-3" points="437.583 490.563 461.961 476 486.355 490.563 461.978 505.127 437.583 490.563"/>
  <polygon class="cls-2" points="520.303 533.523 495.925 518.96 495.917 490.563 520.294 505.127 520.303 533.523"/>
  <polygon class="cls-1" points="520.303 533.523 544.68 518.96 544.689 490.563 520.311 505.127 520.303 533.523"/>
  <polygon class="cls-3" points="495.917 490.563 520.294 476 544.689 490.563 520.311 505.127 495.917 490.563"/>
  <polygon class="cls-2" points="578.636 533.523 554.258 518.96 554.25 490.563 578.628 505.127 578.636 533.523"/>
  <polygon class="cls-1" points="578.636 533.523 603.014 518.96 603.022 490.563 578.644 505.127 578.636 533.523"/>
  <polygon class="cls-3" points="554.25 490.563 578.628 476 603.022 490.563 578.644 505.127 554.25 490.563"/>
  <polygon class="cls-2" points="636.969 533.523 612.592 518.96 612.583 490.563 636.961 505.127 636.969 533.523"/>
  <polygon class="cls-1" points="636.969 533.523 661.347 518.96 661.355 490.563 636.978 505.127 636.969 533.523"/>
  <polygon class="cls-3" points="612.583 490.563 636.961 476 661.355 490.563 636.978 505.127 612.583 490.563"/>
  <polygon class="cls-2" points="695.303 533.523 670.925 518.96 670.917 490.563 695.294 505.127 695.303 533.523"/>
  <polygon class="cls-1" points="695.303 533.523 719.68 518.96 719.689 490.563 695.311 505.127 695.303 533.523"/>
  <polygon class="cls-3" points="670.917 490.563 695.294 476 719.689 490.563 695.311 505.127 670.917 490.563"/>
  <polygon class="cls-2" points="753.636 533.523 729.258 518.96 729.25 490.563 753.628 505.127 753.636 533.523"/>
  <polygon class="cls-1" points="753.636 533.523 778.014 518.96 778.022 490.563 753.644 505.127 753.636 533.523"/>
  <polygon class="cls-3" points="729.25 490.563 753.628 476 778.022 490.563 753.644 505.127 729.25 490.563"/>
  <polygon class="cls-2" points="24.386 587.523 .008 572.96 0 544.563 24.378 559.127 24.386 587.523"/>
  <polygon class="cls-1" points="24.386 587.523 48.764 572.96 48.772 544.563 24.394 559.127 24.386 587.523"/>
  <polygon class="cls-3" points="0 544.563 24.378 530 48.772 544.563 24.394 559.127 0 544.563"/>
  <polygon class="cls-2" points="82.719 587.523 58.342 572.96 58.333 544.563 82.711 559.127 82.719 587.523"/>
  <polygon class="cls-1" points="82.719 587.523 107.097 572.96 107.105 544.563 82.728 559.127 82.719 587.523"/>
  <polygon class="cls-3" points="58.333 544.563 82.711 530 107.105 544.563 82.728 559.127 58.333 544.563"/>
  <polygon class="cls-2" points="141.053 587.523 116.675 572.96 116.667 544.563 141.044 559.127 141.053 587.523"/>
  <polygon class="cls-1" points="141.053 587.523 165.43 572.96 165.439 544.563 141.061 559.127 141.053 587.523"/>
  <polygon class="cls-3" points="116.667 544.563 141.044 530 165.439 544.563 141.061 559.127 116.667 544.563"/>
  <polygon class="cls-2" points="199.386 587.523 175.008 572.96 175 544.563 199.378 559.127 199.386 587.523"/>
  <polygon class="cls-1" points="199.386 587.523 223.764 572.96 223.772 544.563 199.394 559.127 199.386 587.523"/>
  <polygon class="cls-3" points="175 544.563 199.378 530 223.772 544.563 199.394 559.127 175 544.563"/>
  <polygon class="cls-2" points="257.719 587.523 233.342 572.96 233.333 544.563 257.711 559.127 257.719 587.523"/>
  <polygon class="cls-1" points="257.719 587.523 282.097 572.96 282.105 544.563 257.728 559.127 257.719 587.523"/>
  <polygon class="cls-3" points="233.333 544.563 257.711 530 282.105 544.563 257.728 559.127 233.333 544.563"/>
  <polygon class="cls-2" points="316.053 587.523 291.675 572.96 291.667 544.563 316.044 559.127 316.053 587.523"/>
  <polygon class="cls-1" points="316.053 587.523 340.43 572.96 340.439 544.563 316.061 559.127 316.053 587.523"/>
  <polygon class="cls-3" points="291.667 544.563 316.044 530 340.439 544.563 316.061 559.127 291.667 544.563"/>
  <polygon class="cls-2" points="374.386 587.523 350.008 572.96 350 544.563 374.378 559.127 374.386 587.523"/>
  <polygon class="cls-1" points="374.386 587.523 398.764 572.96 398.772 544.563 374.394 559.127 374.386 587.523"/>
  <polygon class="cls-3" points="350 544.563 374.378 530 398.772 544.563 374.394 559.127 350 544.563"/>
  <polygon class="cls-2" points="432.719 587.523 408.342 572.96 408.333 544.563 432.711 559.127 432.719 587.523"/>
  <polygon class="cls-1" points="432.719 587.523 457.097 572.96 457.105 544.563 432.728 559.127 432.719 587.523"/>
  <polygon class="cls-3" points="408.333 544.563 432.711 530 457.105 544.563 432.728 559.127 408.333 544.563"/>
  <polygon class="cls-2" points="491.053 587.523 466.675 572.96 466.667 544.563 491.044 559.127 491.053 587.523"/>
  <polygon class="cls-1" points="491.053 587.523 515.43 572.96 515.439 544.563 491.061 559.127 491.053 587.523"/>
  <polygon class="cls-3" points="466.667 544.563 491.044 530 515.439 544.563 491.061 559.127 466.667 544.563"/>
  <polygon class="cls-2" points="549.386 587.523 525.008 572.96 525 544.563 549.378 559.127 549.386 587.523"/>
  <polygon class="cls-1" points="549.386 587.523 573.764 572.96 573.772 544.563 549.394 559.127 549.386 587.523"/>
  <polygon class="cls-3" points="525 544.563 549.378 530 573.772 544.563 549.394 559.127 525 544.563"/>
  <polygon class="cls-2" points="607.719 587.523 583.342 572.96 583.333 544.563 607.711 559.127 607.719 587.523"/>
  <polygon class="cls-1" points="607.719 587.523 632.097 572.96 632.105 544.563 607.728 559.127 607.719 587.523"/>
  <polygon class="cls-3" points="583.333 544.563 607.711 530 632.105 544.563 607.728 559.127 583.333 544.563"/>
  <polygon class="cls-2" points="666.053 587.523 641.675 572.96 641.667 544.563 666.044 559.127 666.053 587.523"/>
  <polygon class="cls-1" points="666.053 587.523 690.43 572.96 690.439 544.563 666.061 559.127 666.053 587.523"/>
  <polygon class="cls-3" points="641.667 544.563 666.044 530 690.439 544.563 666.061 559.127 641.667 544.563"/>
  <polygon class="cls-2" points="724.386 587.523 700.008 572.96 700 544.563 724.378 559.127 724.386 587.523"/>
  <polygon class="cls-1" points="724.386 587.523 748.764 572.96 748.772 544.563 724.394 559.127 724.386 587.523"/>
  <polygon class="cls-3" points="700 544.563 724.378 530 748.772 544.563 724.394 559.127 700 544.563"/>
  <polygon class="cls-2" points="53.636 639.523 29.258 624.96 29.25 596.563 53.628 611.127 53.636 639.523"/>
  <polygon class="cls-1" points="53.636 639.523 78.014 624.96 78.022 596.563 53.644 611.127 53.636 639.523"/>
  <polygon class="cls-3" points="29.25 596.563 53.628 582 78.022 596.563 53.644 611.127 29.25 596.563"/>
  <polygon class="cls-2" points="111.969 639.523 87.592 624.96 87.583 596.563 111.961 611.127 111.969 639.523"/>
  <polygon class="cls-1" points="111.969 639.523 136.347 624.96 136.355 596.563 111.978 611.127 111.969 639.523"/>
  <polygon class="cls-3" points="87.583 596.563 111.961 582 136.355 596.563 111.978 611.127 87.583 596.563"/>
  <polygon class="cls-2" points="170.303 639.523 145.925 624.96 145.917 596.563 170.294 611.127 170.303 639.523"/>
  <polygon class="cls-1" points="170.303 639.523 194.68 624.96 194.689 596.563 170.311 611.127 170.303 639.523"/>
  <polygon class="cls-3" points="145.917 596.563 170.294 582 194.689 596.563 170.311 611.127 145.917 596.563"/>
  <polygon class="cls-2" points="228.636 639.523 204.258 624.96 204.25 596.563 228.628 611.127 228.636 639.523"/>
  <polygon class="cls-1" points="228.636 639.523 253.014 624.96 253.022 596.563 228.644 611.127 228.636 639.523"/>
  <polygon class="cls-3" points="204.25 596.563 228.628 582 253.022 596.563 228.644 611.127 204.25 596.563"/>
  <polygon class="cls-2" points="286.969 639.523 262.592 624.96 262.583 596.563 286.961 611.127 286.969 639.523"/>
  <polygon class="cls-1" points="286.969 639.523 311.347 624.96 311.355 596.563 286.978 611.127 286.969 639.523"/>
  <polygon class="cls-3" points="262.583 596.563 286.961 582 311.355 596.563 286.978 611.127 262.583 596.563"/>
  <polygon class="cls-2" points="345.303 639.523 320.925 624.96 320.917 596.563 345.294 611.127 345.303 639.523"/>
  <polygon class="cls-1" points="345.303 639.523 369.68 624.96 369.689 596.563 345.311 611.127 345.303 639.523"/>
  <polygon class="cls-3" points="320.917 596.563 345.294 582 369.689 596.563 345.311 611.127 320.917 596.563"/>
  <polygon class="cls-2" points="403.636 639.523 379.258 624.96 379.25 596.563 403.628 611.127 403.636 639.523"/>
  <polygon class="cls-1" points="403.636 639.523 428.014 624.96 428.022 596.563 403.644 611.127 403.636 639.523"/>
  <polygon class="cls-3" points="379.25 596.563 403.628 582 428.022 596.563 403.644 611.127 379.25 596.563"/>
  <polygon class="cls-2" points="461.969 639.523 437.592 624.96 437.583 596.563 461.961 611.127 461.969 639.523"/>
  <polygon class="cls-1" points="461.969 639.523 486.347 624.96 486.355 596.563 461.978 611.127 461.969 639.523"/>
  <polygon class="cls-3" points="437.583 596.563 461.961 582 486.355 596.563 461.978 611.127 437.583 596.563"/>
  <polygon class="cls-2" points="520.303 639.523 495.925 624.96 495.917 596.563 520.294 611.127 520.303 639.523"/>
  <polygon class="cls-1" points="520.303 639.523 544.68 624.96 544.689 596.563 520.311 611.127 520.303 639.523"/>
  <polygon class="cls-3" points="495.917 596.563 520.294 582 544.689 596.563 520.311 611.127 495.917 596.563"/>
  <polygon class="cls-2" points="578.636 639.523 554.258 624.96 554.25 596.563 578.628 611.127 578.636 639.523"/>
  <polygon class="cls-1" points="578.636 639.523 603.014 624.96 603.022 596.563 578.644 611.127 578.636 639.523"/>
  <polygon class="cls-3" points="554.25 596.563 578.628 582 603.022 596.563 578.644 611.127 554.25 596.563"/>
  <polygon class="cls-2" points="636.969 639.523 612.592 624.96 612.583 596.563 636.961 611.127 636.969 639.523"/>
  <polygon class="cls-1" points="636.969 639.523 661.347 624.96 661.355 596.563 636.978 611.127 636.969 639.523"/>
  <polygon class="cls-3" points="612.583 596.563 636.961 582 661.355 596.563 636.978 611.127 612.583 596.563"/>
  <polygon class="cls-2" points="695.303 639.523 670.925 624.96 670.917 596.563 695.294 611.127 695.303 639.523"/>
  <polygon class="cls-1" points="695.303 639.523 719.68 624.96 719.689 596.563 695.311 611.127 695.303 639.523"/>
  <polygon class="cls-3" points="670.917 596.563 695.294 582 719.689 596.563 695.311 611.127 670.917 596.563"/>
  <polygon class="cls-2" points="753.636 639.523 729.258 624.96 729.25 596.563 753.628 611.127 753.636 639.523"/>
  <polygon class="cls-1" points="753.636 639.523 778.014 624.96 778.022 596.563 753.644 611.127 753.636 639.523"/>
  <polygon class="cls-3" points="729.25 596.563 753.628 582 778.022 596.563 753.644 611.127 729.25 596.563"/>
  <polygon class="cls-2" points="24.386 693.523 .008 678.96 0 650.563 24.378 665.127 24.386 693.523"/>
  <polygon class="cls-1" points="24.386 693.523 48.764 678.96 48.772 650.563 24.394 665.127 24.386 693.523"/>
  <polygon class="cls-3" points="0 650.563 24.378 636 48.772 650.563 24.394 665.127 0 650.563"/>
  <polygon class="cls-2" points="82.719 693.523 58.342 678.96 58.333 650.563 82.711 665.127 82.719 693.523"/>
  <polygon class="cls-1" points="82.719 693.523 107.097 678.96 107.105 650.563 82.728 665.127 82.719 693.523"/>
  <polygon class="cls-3" points="58.333 650.563 82.711 636 107.105 650.563 82.728 665.127 58.333 650.563"/>
  <polygon class="cls-2" points="141.053 693.523 116.675 678.96 116.667 650.563 141.044 665.127 141.053 693.523"/>
  <polygon class="cls-1" points="141.053 693.523 165.43 678.96 165.439 650.563 141.061 665.127 141.053 693.523"/>
  <polygon class="cls-3" points="116.667 650.563 141.044 636 165.439 650.563 141.061 665.127 116.667 650.563"/>
  <polygon class="cls-2" points="199.386 693.523 175.008 678.96 175 650.563 199.378 665.127 199.386 693.523"/>
  <polygon class="cls-1" points="199.386 693.523 223.764 678.96 223.772 650.563 199.394 665.127 199.386 693.523"/>
  <polygon class="cls-3" points="175 650.563 199.378 636 223.772 650.563 199.394 665.127 175 650.563"/>
  <polygon class="cls-2" points="257.719 693.523 233.342 678.96 233.333 650.563 257.711 665.127 257.719 693.523"/>
  <polygon class="cls-1" points="257.719 693.523 282.097 678.96 282.105 650.563 257.728 665.127 257.719 693.523"/>
  <polygon class="cls-3" points="233.333 650.563 257.711 636 282.105 650.563 257.728 665.127 233.333 650.563"/>
  <polygon class="cls-2" points="316.053 693.523 291.675 678.96 291.667 650.563 316.044 665.127 316.053 693.523"/>
  <polygon class="cls-1" points="316.053 693.523 340.43 678.96 340.439 650.563 316.061 665.127 316.053 693.523"/>
  <polygon class="cls-3" points="291.667 650.563 316.044 636 340.439 650.563 316.061 665.127 291.667 650.563"/>
  <polygon class="cls-2" points="374.386 693.523 350.008 678.96 350 650.563 374.378 665.127 374.386 693.523"/>
  <polygon class="cls-1" points="374.386 693.523 398.764 678.96 398.772 650.563 374.394 665.127 374.386 693.523"/>
  <polygon class="cls-3" points="350 650.563 374.378 636 398.772 650.563 374.394 665.127 350 650.563"/>
  <polygon class="cls-2" points="432.719 693.523 408.342 678.96 408.333 650.563 432.711 665.127 432.719 693.523"/>
  <polygon class="cls-1" points="432.719 693.523 457.097 678.96 457.105 650.563 432.728 665.127 432.719 693.523"/>
  <polygon class="cls-3" points="408.333 650.563 432.711 636 457.105 650.563 432.728 665.127 408.333 650.563"/>
  <polygon class="cls-2" points="491.053 693.523 466.675 678.96 466.667 650.563 491.044 665.127 491.053 693.523"/>
  <polygon class="cls-1" points="491.053 693.523 515.43 678.96 515.439 650.563 491.061 665.127 491.053 693.523"/>
  <polygon class="cls-3" points="466.667 650.563 491.044 636 515.439 650.563 491.061 665.127 466.667 650.563"/>
  <polygon class="cls-2" points="549.386 693.523 525.008 678.96 525 650.563 549.378 665.127 549.386 693.523"/>
  <polygon class="cls-1" points="549.386 693.523 573.764 678.96 573.772 650.563 549.394 665.127 549.386 693.523"/>
  <polygon class="cls-3" points="525 650.563 549.378 636 573.772 650.563 549.394 665.127 525 650.563"/>
  <polygon class="cls-2" points="607.719 693.523 583.342 678.96 583.333 650.563 607.711 665.127 607.719 693.523"/>
  <polygon class="cls-1" points="607.719 693.523 632.097 678.96 632.105 650.563 607.728 665.127 607.719 693.523"/>
  <polygon class="cls-3" points="583.333 650.563 607.711 636 632.105 650.563 607.728 665.127 583.333 650.563"/>
  <polygon class="cls-2" points="666.053 693.523 641.675 678.96 641.667 650.563 666.044 665.127 666.053 693.523"/>
  <polygon class="cls-1" points="666.053 693.523 690.43 678.96 690.439 650.563 666.061 665.127 666.053 693.523"/>
  <polygon class="cls-3" points="641.667 650.563 666.044 636 690.439 650.563 666.061 665.127 641.667 650.563"/>
  <polygon class="cls-2" points="724.386 693.523 700.008 678.96 700 650.563 724.378 665.127 724.386 693.523"/>
  <polygon class="cls-1" points="724.386 693.523 748.764 678.96 748.772 650.563 724.394 665.127 724.386 693.523"/>
  <polygon class="cls-3" points="700 650.563 724.378 636 748.772 650.563 724.394 665.127 700 650.563"/>
  <polygon class="cls-2" points="53.636 745.523 29.258 730.96 29.25 702.563 53.628 717.127 53.636 745.523"/>
  <polygon class="cls-1" points="53.636 745.523 78.014 730.96 78.022 702.563 53.644 717.127 53.636 745.523"/>
  <polygon class="cls-3" points="29.25 702.563 53.628 688 78.022 702.563 53.644 717.127 29.25 702.563"/>
  <polygon class="cls-2" points="111.969 745.523 87.592 730.96 87.583 702.563 111.961 717.127 111.969 745.523"/>
  <polygon class="cls-1" points="111.969 745.523 136.347 730.96 136.355 702.563 111.978 717.127 111.969 745.523"/>
  <polygon class="cls-3" points="87.583 702.563 111.961 688 136.355 702.563 111.978 717.127 87.583 702.563"/>
  <polygon class="cls-2" points="170.303 745.523 145.925 730.96 145.917 702.563 170.294 717.127 170.303 745.523"/>
  <polygon class="cls-1" points="170.303 745.523 194.68 730.96 194.689 702.563 170.311 717.127 170.303 745.523"/>
  <polygon class="cls-3" points="145.917 702.563 170.294 688 194.689 702.563 170.311 717.127 145.917 702.563"/>
  <polygon class="cls-2" points="228.636 745.523 204.258 730.96 204.25 702.563 228.628 717.127 228.636 745.523"/>
  <polygon class="cls-1" points="228.636 745.523 253.014 730.96 253.022 702.563 228.644 717.127 228.636 745.523"/>
  <polygon class="cls-3" points="204.25 702.563 228.628 688 253.022 702.563 228.644 717.127 204.25 702.563"/>
  <polygon class="cls-2" points="286.969 745.523 262.592 730.96 262.583 702.563 286.961 717.127 286.969 745.523"/>
  <polygon class="cls-1" points="286.969 745.523 311.347 730.96 311.355 702.563 286.978 717.127 286.969 745.523"/>
  <polygon class="cls-3" points="262.583 702.563 286.961 688 311.355 702.563 286.978 717.127 262.583 702.563"/>
  <polygon class="cls-2" points="345.303 745.523 320.925 730.96 320.917 702.563 345.294 717.127 345.303 745.523"/>
  <polygon class="cls-1" points="345.303 745.523 369.68 730.96 369.689 702.563 345.311 717.127 345.303 745.523"/>
  <polygon class="cls-3" points="320.917 702.563 345.294 688 369.689 702.563 345.311 717.127 320.917 702.563"/>
  <polygon class="cls-2" points="403.636 745.523 379.258 730.96 379.25 702.563 403.628 717.127 403.636 745.523"/>
  <polygon class="cls-1" points="403.636 745.523 428.014 730.96 428.022 702.563 403.644 717.127 403.636 745.523"/>
  <polygon class="cls-3" points="379.25 702.563 403.628 688 428.022 702.563 403.644 717.127 379.25 702.563"/>
  <polygon class="cls-2" points="461.969 745.523 437.592 730.96 437.583 702.563 461.961 717.127 461.969 745.523"/>
  <polygon class="cls-1" points="461.969 745.523 486.347 730.96 486.355 702.563 461.978 717.127 461.969 745.523"/>
  <polygon class="cls-3" points="437.583 702.563 461.961 688 486.355 702.563 461.978 717.127 437.583 702.563"/>
  <polygon class="cls-2" points="520.303 745.523 495.925 730.96 495.917 702.563 520.294 717.127 520.303 745.523"/>
  <polygon class="cls-1" points="520.303 745.523 544.68 730.96 544.689 702.563 520.311 717.127 520.303 745.523"/>
  <polygon class="cls-3" points="495.917 702.563 520.294 688 544.689 702.563 520.311 717.127 495.917 702.563"/>
  <polygon class="cls-2" points="578.636 745.523 554.258 730.96 554.25 702.563 578.628 717.127 578.636 745.523"/>
  <polygon class="cls-1" points="578.636 745.523 603.014 730.96 603.022 702.563 578.644 717.127 578.636 745.523"/>
  <polygon class="cls-3" points="554.25 702.563 578.628 688 603.022 702.563 578.644 717.127 554.25 702.563"/>
  <polygon class="cls-2" points="636.969 745.523 612.592 730.96 612.583 702.563 636.961 717.127 636.969 745.523"/>
  <polygon class="cls-1" points="636.969 745.523 661.347 730.96 661.355 702.563 636.978 717.127 636.969 745.523"/>
  <polygon class="cls-3" points="612.583 702.563 636.961 688 661.355 702.563 636.978 717.127 612.583 702.563"/>
  <polygon class="cls-2" points="695.303 745.523 670.925 730.96 670.917 702.563 695.294 717.127 695.303 745.523"/>
  <polygon class="cls-1" points="695.303 745.523 719.68 730.96 719.689 702.563 695.311 717.127 695.303 745.523"/>
  <polygon class="cls-3" points="670.917 702.563 695.294 688 719.689 702.563 695.311 717.127 670.917 702.563"/>
  <polygon class="cls-2" points="753.636 745.523 729.258 730.96 729.25 702.563 753.628 717.127 753.636 745.523"/>
  <polygon class="cls-1" points="753.636 745.523 778.014 730.96 778.022 702.563 753.644 717.127 753.636 745.523"/>
  <polygon class="cls-3" points="729.25 702.563 753.628 688 778.022 702.563 753.644 717.127 729.25 702.563"/>
</svg>